<?xml version="1.0" encoding="utf-8"?>
<!-- Generator: Adobe Illustrator 17.0.0, SVG Export Plug-In . SVG Version: 6.00 Build 0)  -->
<!DOCTYPE svg PUBLIC "-//W3C//DTD SVG 1.1//EN" "http://www.w3.org/Graphics/SVG/1.1/DTD/svg11.dtd">
<svg version="1.1" id="Capa_1" xmlns="http://www.w3.org/2000/svg" xmlns:xlink="http://www.w3.org/1999/xlink" x="0px" y="0px"
	 width="48px" height="48px" viewBox="0 0 48 48" enable-background="new 0 0 48 48" xml:space="preserve">
<polygon fill="none" points="40.011,43.989 40.011,43.989 40.011,43.989 "/>
<path d="M42.124,42.115C42.688,41.552,43,40.803,43,40.007V17.922c0-1.658-1.354-3.023-3.017-3.044l-4.196-0.053
	c-0.325-0.004-0.628-0.166-0.812-0.434l-2.864-4.171C31.673,9.581,30.568,9,29.795,9H17.849c-0.776,0-1.884,0.577-2.324,1.209
	l-2.916,4.187c-0.187,0.268-0.494,0.428-0.821,0.428h-3.78C6.35,14.825,5,16.167,5,17.818v22.084c0,1.652,1.347,3,3.002,3.004
	l32,0.083h0.008C40.809,42.989,41.559,42.679,42.124,42.115z M30.458,11.345c0.002,0.002,0.003,0.005,0.005,0.008l0.002,0.002
	l3.744,5.454l4.229,0.078C40.508,16.926,41,16.936,41,17.922v22.067c0,0.266-0.105,0.521-0.294,0.708
	c-0.188,0.188-0.441,0.292-0.706,0.292c-0.001,0-0.002,0-0.003,0c-20.666-0.058-31.321-0.087-31.966-0.087c-0.01,0-0.021,0-0.031,0
	c-0.552,0-1-0.447-1-1l0.003-16.559c0.002-6.519,0.002-6.519,1.005-6.519h5.347l3.521-5.056c0.218-0.3,0.749-0.831,1.469-0.769
	h10.896C29.241,11,30.135,10.893,30.458,11.345c0.002,0.002,0.003,0.005,0.005,0.008l0,0"/>
<path d="M34.209,16.808l-3.744-5.454l-0.002-0.002c0.047,0.055,0.089,0.115,0.123,0.179L34.209,16.808z"/>
<path d="M39.997,40.989C19.335,40.932,8.68,40.902,8.031,40.902C8.676,40.902,19.331,40.932,39.997,40.989z"/>
<path d="M30.215,11.101c0.034,0.024,0.059,0.062,0.09,0.091C30.273,11.163,30.249,11.125,30.215,11.101z"/>
<path d="M29.91,10.956"/>
<polygon points="16.876,11.769 13.355,16.825 16.876,11.769 "/>
<path d="M29.575,10.921c0.035-0.002,0.068,0.009,0.102,0.011C29.643,10.93,29.609,10.918,29.575,10.921z"/>
<rect x="16.905" y="11.674" fill="#FFFFFF" width="0.001" height="0.104"/>
<path d="M24,35c3.859,0,7-3.141,7-7c0-3.86-3.141-7-7-7c-3.86,0-7,3.14-7,7C17,31.859,20.14,35,24,35z M24,23c2.757,0,5,2.243,5,5
	s-2.243,5-5,5s-5-2.243-5-5S21.243,23,24,23z"/>
</svg>
